<svg width="22" height="22" viewBox="0 0 22 22" fill="none" xmlns="http://www.w3.org/2000/svg">
<path d="M19.9883 9.20472H19.2499V9.16668H10.9999V12.8333H16.1805C15.4247 14.9678 13.3938 16.5 10.9999 16.5C7.96254 16.5 5.49992 14.0374 5.49992 11C5.49992 7.96264 7.96254 5.50001 10.9999 5.50001C12.402 5.50001 13.6775 6.02893 14.6487 6.89289L17.2415 4.30009C15.6043 2.7743 13.4144 1.83334 10.9999 1.83334C5.93763 1.83334 1.83325 5.93772 1.83325 11C1.83325 16.0623 5.93763 20.1667 10.9999 20.1667C16.0622 20.1667 20.1666 16.0623 20.1666 11C20.1666 10.3854 20.1033 9.78543 19.9883 9.20472Z" fill="#FFC107"/>
<path d="M2.89038 6.73338L5.90209 8.94209C6.71701 6.92451 8.69059 5.50001 11.0001 5.50001C12.4022 5.50001 13.6777 6.02893 14.6489 6.89288L17.2417 4.30009C15.6045 2.7743 13.4146 1.83334 11.0001 1.83334C7.47921 1.83334 4.4258 3.82114 2.89038 6.73338Z" fill="#FF3D00"/>
<path d="M11 20.1666C13.3677 20.1666 15.5191 19.2605 17.1458 17.787L14.3087 15.3862C13.3884 16.0834 12.2444 16.5 11 16.5C8.61573 16.5 6.59127 14.9797 5.82861 12.8581L2.83936 15.1612C4.35644 18.1298 7.43736 20.1666 11 20.1666Z" fill="#4CAF50"/>
<path d="M19.9884 9.2047H19.25V9.16666H11V12.8333H16.1805C15.8175 13.8586 15.158 14.7427 14.3073 15.3867C14.3078 15.3862 14.3083 15.3862 14.3087 15.3858L17.1458 17.7865C16.945 17.9689 20.1667 15.5833 20.1667 11C20.1667 10.3854 20.1034 9.78541 19.9884 9.2047Z" fill="#1976D2"/>
</svg>
