<svg width="15" height="15" viewBox="0 0 15 15" fill="none" xmlns="http://www.w3.org/2000/svg">
<path fill-rule="evenodd" clip-rule="evenodd" d="M6.375 12.75C2.85419 12.75 0 9.89579 0 6.37499C0 2.85418 2.85419 0 6.375 0C9.89582 0 12.75 2.85418 12.75 6.37499C12.75 7.87268 12.2335 9.24975 11.369 10.3378L14.7864 13.7552C15.0712 14.04 15.0712 14.5017 14.7864 14.7864C14.5017 15.0712 14.04 15.0712 13.7552 14.7864L10.3378 11.369C9.24973 12.2335 7.87268 12.75 6.375 12.75ZM11.25 6.37495C11.25 9.06733 9.06739 11.2499 6.375 11.2499C3.68261 11.2499 1.5 9.06733 1.5 6.37495C1.5 3.68257 3.68261 1.49996 6.375 1.49996C9.06739 1.49996 11.25 3.68257 11.25 6.37495Z" fill="currentColor"/>
</svg>
