<svg width="61" height="35" viewBox="0 0 61 35" fill="none" xmlns="http://www.w3.org/2000/svg">
<path fill-rule="evenodd" clip-rule="evenodd" d="M30.1111 29.3764L32.2408 31.0362H34.8555L36.9852 29.3764H36.23L34.6843 30.5811H34.1696L34.8487 29.3764H33.2935L33.0273 30.5811H32.412L30.8663 29.3764H30.1111ZM30.1111 24.8819V25.523H36.9852V24.8819H30.1111ZM30.1111 26.0432V26.634H36.9852V26.0432H30.1111ZM30.1111 27.1543V27.7451H36.9852V27.1543H30.1111ZM30.1111 28.2653V28.8562H36.9852V28.2653H30.1111ZM29.0666 24.2299H38.0297V29.8477L35.2276 32.0304H31.8687L29.0666 29.8477V24.2299Z" fill="auto"/>
<path fill-rule="evenodd" clip-rule="evenodd" d="M13.6817 5.90298C14.3622 5.90298 15.0169 6.01164 15.6308 6.21267C16.4159 6.00621 17.239 5.89619 18.0893 5.89619C18.4084 5.89619 18.7236 5.91249 19.036 5.94237C19.6567 5.40315 20.4676 5.07716 21.3545 5.07716C23.0863 5.07716 24.5274 6.32133 24.833 7.96482C25.6452 8.08978 26.3678 8.49046 26.8989 9.06772C26.5892 9.38555 26.3013 9.72512 26.0391 10.0823C27.104 11.6335 27.7288 13.5119 27.7288 15.5357C27.7288 16.3493 27.6283 17.1371 27.4381 17.891C27.5753 18.4057 27.6487 18.945 27.6487 19.5018C27.6487 22.9545 24.8493 25.7539 21.3953 25.7539C20.4418 25.7539 19.5385 25.5407 18.729 25.1576C17.9208 26.2388 16.6305 26.9397 15.1772 26.9397C12.8899 26.9397 11.0073 25.2065 10.7696 22.9817C8.44971 22.8391 6.61199 20.9131 6.61199 18.5579C6.61199 17.1928 7.22864 15.9731 8.19844 15.1609C7.7081 14.2685 7.42966 13.2444 7.42966 12.155C7.42966 8.70235 10.229 5.90298 13.6817 5.90298ZM18.0893 6.77227C20.5518 6.77227 22.778 7.78824 24.3698 9.42494L21.0992 12.697C20.344 11.897 19.275 11.3985 18.0893 11.3985C15.8033 11.3985 13.9507 13.2512 13.9507 15.5357C13.9507 17.8217 15.8033 19.6743 18.0893 19.6743C19.275 19.6743 20.344 19.1759 21.0992 18.3759L24.3698 21.6479C22.778 23.2832 20.5518 24.3006 18.0893 24.3006C13.2484 24.3006 9.32443 20.3766 9.32443 15.5357C9.32443 10.6963 13.2484 6.77227 18.0893 6.77227ZM18.0893 6.20044C23.2452 6.20044 27.4246 10.3798 27.4246 15.5357C27.4246 20.6917 23.2452 24.8724 18.0893 24.8724C12.9333 24.8724 8.7526 20.6917 8.7526 15.5357C8.7526 10.3798 12.9333 6.20044 18.0893 6.20044ZM7.76379 22.9844C9.36246 22.9844 10.6582 24.2802 10.6582 25.8802C10.6582 27.4789 9.36246 28.776 7.76379 28.776C6.16377 28.776 4.86663 27.4789 4.86663 25.8802C4.86663 24.2802 6.16377 22.9844 7.76379 22.9844ZM2.25335 26.5661C3.49751 26.5661 4.50534 27.574 4.50534 28.8195C4.50534 30.0636 3.49751 31.0715 2.25335 31.0715C1.00918 31.0715 0 30.0636 0 28.8195C0 27.574 1.00918 26.5661 2.25335 26.5661Z" fill="auto"/>
<path fill-rule="evenodd" clip-rule="evenodd" d="M33.6358 6.23168C36.643 6.23168 39.3215 7.64155 41.0465 9.83649C39.9313 11.4569 39.278 13.4209 39.278 15.5357C39.278 16.1646 39.335 16.7785 39.4451 17.3748L34.5268 7.03848C33.8586 7.03848 33.1917 7.03848 32.5248 7.03848L28.1308 16.2706C28.1484 16.0274 28.158 15.7816 28.158 15.5357C28.158 13.6002 27.6079 11.7231 26.5647 10.1C26.7644 9.84464 26.979 9.60015 27.2058 9.36789C27.3647 9.2049 27.3688 8.94683 27.2153 8.77841L27.2058 8.7689C28.8887 7.19468 31.1488 6.23168 33.6358 6.23168ZM33.2324 0H34.0378V4.82724H33.2324V0ZM23.3986 3.80448L22.8037 4.34642L23.9949 5.65442C24.2027 5.83914 24.3915 6.0456 24.5559 6.27107L26.0364 7.89826L26.0608 7.90913L26.6489 7.37533L23.3986 3.80448ZM28.3631 0.910032L27.6133 1.19934L29.3546 5.70196L30.1057 5.41129L28.3631 0.910032ZM43.8716 3.80448L44.4665 4.34642L41.2176 7.91728L40.6213 7.37533L43.8716 3.80448ZM38.9072 0.910032L39.657 1.19934L37.9157 5.70196L37.1646 5.41129L38.9072 0.910032ZM29.3519 23.2887L29.8694 22.2021H37.1822L37.6997 23.2887H29.3519ZM35.2834 18.2115L33.5258 14.517L31.7682 18.2115H35.2834Z" fill="auto"/>
<path fill-rule="evenodd" clip-rule="evenodd" d="M49.3468 5.89619C54.6698 5.89619 58.9864 10.2127 58.9864 15.5357C58.9864 20.1008 55.8135 23.9243 51.5526 24.9226L55.258 27.1787L48.2385 28.8847L50.5407 25.1019C50.1496 25.1508 49.7516 25.1766 49.3468 25.1766C44.0225 25.1766 39.7059 20.8601 39.7059 15.5357C39.7059 10.2127 44.0225 5.89619 49.3468 5.89619ZM49.3468 6.77227C51.8094 6.77227 54.0355 7.78825 55.6274 9.42494L52.3567 12.697C51.6015 11.897 50.5326 11.3985 49.3468 11.3985C47.0609 11.3985 45.2082 13.2512 45.2082 15.5357C45.2082 17.8217 47.0609 19.6743 49.3468 19.6743C50.5326 19.6743 51.6015 19.1759 52.3567 18.3759L55.6274 21.6479C54.0355 23.2832 51.8094 24.3006 49.3468 24.3006C44.506 24.3006 40.582 20.3766 40.582 15.5357C40.582 10.6963 44.506 6.77227 49.3468 6.77227Z" fill="auto"/>
<path fill-rule="evenodd" clip-rule="evenodd" d="M51.6449 28.0575C51.9383 30.2022 52.3893 31.7316 55.1139 31.574C56.5292 31.4925 57.6865 31.6637 58.5136 32.0385C59.1099 32.3075 59.5432 32.6837 59.7891 33.1496C60.0091 33.5652 60.077 34.0433 59.9792 34.5717H59.387C59.4902 34.1316 59.4495 33.7445 59.277 33.4199C59.0923 33.0695 58.7527 32.7815 58.276 32.5655C57.5303 32.2287 56.4654 32.0766 55.1465 32.1513C52.157 32.317 51.3774 30.6721 51.0731 28.196L51.6449 28.0575Z" fill="auto"/>
</svg>
