<svg width="18" height="18" viewBox="0 0 18 18" fill="none" xmlns="http://www.w3.org/2000/svg">
<rect width="18" height="18" fill="none"/>
<path d="M14.9731 5.99063H7.18247C6.44419 5.99063 5.84302 6.5918 5.84302 7.33008V12.7547C5.84302 13.493 6.44419 14.0906 7.18247 14.0906H11.6403C11.7387 14.0906 11.8372 14.1328 11.9075 14.2031L14.1223 16.2457C14.2454 16.3652 14.4493 16.316 14.4493 16.1438V14.3649C14.4493 14.1539 14.5829 14.0871 14.7938 14.0871H14.829C15.5672 14.0871 16.309 13.493 16.309 12.7512V7.33008C16.3125 6.58829 15.7114 5.99063 14.9731 5.99063V5.99063Z" fill="currentColor"/>
<path d="M6.13125 5.1293H12.368V2.83359C12.368 2.20078 11.8547 1.6875 11.2219 1.6875H2.83359C2.20078 1.6875 1.6875 2.20078 1.6875 2.83359V8.64141C1.6875 9.27422 2.20078 9.7875 2.83359 9.7875H4.98164V6.27539C4.98516 5.64258 5.49844 5.1293 6.13125 5.1293V5.1293Z" fill="currentColor"/>
</svg>
